<svg version="1.1" id="Layer_1" xmlns="http://www.w3.org/2000/svg" xmlns:xlink="http://www.w3.org/1999/xlink" x="0px" y="0px"
	 width="100%" viewBox="0 0 1024 1024" enable-background="new 0 0 1024 1024" xml:space="preserve">
<path fill="#000000" opacity="1.000000" stroke="none" 
	d="
M373.216797,574.659546 
	C363.573730,553.620239 358.196228,531.971802 358.756287,509.120514 
	C359.070892,496.284485 361.562531,483.693390 365.234833,471.411102 
	C366.586792,466.889343 366.237701,463.464203 363.470367,459.431854 
	C354.959747,447.030701 351.571106,432.839233 350.674896,418.011627 
	C349.578918,399.879608 352.617706,382.535858 361.064941,366.302155 
	C366.037354,356.746338 372.239838,348.128143 380.798737,341.460114 
	C383.527679,339.334076 383.485474,337.651367 381.691345,334.864471 
	C374.405945,323.548004 370.652100,311.077515 370.696991,297.591431 
	C370.729126,287.932404 376.834564,283.385254 386.248566,285.757355 
	C390.903778,286.930359 394.583710,289.828247 398.255249,292.717133 
	C399.433380,293.644104 400.647949,294.538116 401.737061,295.562805 
	C410.667999,303.965424 419.638794,305.193146 431.072296,299.054962 
	C447.761627,290.095154 466.296112,286.288116 485.172882,284.546967 
	C515.534973,281.746429 545.304810,284.071960 574.048218,294.927795 
	C578.861816,296.745789 583.570557,298.968384 588.063721,301.476837 
	C593.983154,304.781586 599.704773,304.139069 605.149231,300.996521 
	C610.616577,297.840759 615.730347,294.072174 620.996033,290.567596 
	C622.105347,289.829285 623.143555,288.962219 624.313538,288.341034 
	C629.453918,285.611786 634.848877,283.550781 640.420776,286.705170 
	C645.790710,289.745178 645.820129,295.284698 645.258179,300.451263 
	C643.758423,314.240173 639.239380,326.992035 631.073364,338.223022 
	C631.210144,340.101471 632.698792,340.792206 633.796204,341.719940 
	C651.917053,357.039124 661.173218,376.754852 663.440674,400.188721 
	C665.493530,421.405090 662.175720,441.298889 650.401245,459.396393 
	C649.315918,461.064545 649.230225,462.735962 649.754272,464.627716 
	C657.433716,492.348724 663.252930,520.473022 667.034485,548.973633 
	C669.566895,568.059631 671.210449,587.262085 673.379761,606.397949 
	C675.626404,626.215637 676.586731,646.132935 678.222229,665.997314 
	C679.213074,678.032043 676.426086,681.931458 664.547607,684.341492 
	C634.787048,690.379395 604.766113,691.057556 574.615906,688.513794 
	C565.450500,687.740417 564.587524,687.961609 563.297852,694.291199 
	C566.708740,694.763489 570.122253,695.146545 573.502136,695.725647 
	C578.228638,696.535583 581.210144,700.055176 581.096802,704.803162 
	C580.985291,709.468384 578.193054,712.148254 573.895447,713.172363 
	C571.487854,713.746033 568.941284,713.934570 566.455322,713.948792 
	C551.793091,714.032776 537.130005,714.082031 522.467896,714.002808 
	C515.056335,713.962708 511.574127,710.493347 511.629211,703.969727 
	C511.668213,699.347778 514.271729,696.880920 518.284607,695.774170 
	C523.911682,694.222290 529.695984,693.324219 535.547546,693.707397 
	C541.396851,694.090332 545.032166,691.680664 546.645508,685.742859 
	C532.036194,684.066467 517.867249,680.705444 503.833954,676.771423 
	C500.780823,675.915527 499.644714,677.476196 498.407623,679.674438 
	C493.181061,688.961670 487.784363,698.154236 482.636597,707.484436 
	C480.096619,712.088074 476.420532,714.074585 471.245514,714.016724 
	C459.916534,713.890076 448.585419,713.961487 437.255615,713.886780 
	C435.265259,713.873718 433.247253,713.699707 431.293793,713.327942 
	C426.822327,712.476990 423.782196,708.290161 424.247192,703.862000 
	C424.770599,698.877808 427.781799,695.949097 432.616852,695.660339 
	C443.576752,695.005981 454.532349,694.270935 465.497009,693.712524 
	C467.747589,693.597900 469.353790,692.802185 470.439270,690.948608 
	C474.386505,684.208618 478.291412,677.443848 482.487061,670.214966 
	C432.646576,653.410278 397.245789,620.758423 373.216797,574.659546 
M642.130432,391.277496 
	C639.042908,378.333099 633.381348,366.937958 623.007629,358.127289 
	C619.117859,354.823608 615.748352,353.608978 611.164429,356.923218 
	C608.678223,358.720795 605.464294,359.700378 602.435852,360.523712 
	C593.614868,362.921875 584.580078,364.610046 575.885376,367.380829 
	C554.534424,374.184845 539.176575,387.781433 530.760254,408.819580 
	C529.331543,412.390900 528.967529,415.687805 531.328552,419.171295 
	C533.382019,422.200897 534.628723,425.744781 535.266846,429.370544 
	C539.504944,453.450989 531.239929,473.236572 513.987488,489.675018 
	C509.629700,493.827148 505.220459,493.401459 500.588806,489.265289 
	C493.910339,483.301239 488.741699,476.081604 485.039703,468.019226 
	C477.235199,451.022339 474.051697,433.811554 484.717133,416.626129 
	C485.495209,415.372345 485.618530,414.229095 485.086029,412.862579 
	C484.000549,410.077179 483.200226,407.169830 481.974487,404.451630 
	C472.343201,383.093384 454.967438,371.375671 433.097565,365.169373 
	C424.472961,362.721832 415.453613,361.673035 407.215668,357.851074 
	C396.352539,352.811218 395.912415,352.904205 387.544556,361.618408 
	C386.853973,362.337585 386.217804,363.114471 385.605682,363.902832 
	C372.890442,380.279449 368.752655,399.069977 370.279663,419.346497 
	C371.619232,437.134033 378.796692,452.035736 392.957458,463.232086 
	C398.729645,467.795898 405.107697,471.373169 411.725647,474.596069 
	C416.828094,477.081024 418.520752,481.237701 417.002472,486.153534 
	C415.611816,490.656189 411.202179,493.263550 405.885162,492.503662 
	C399.755920,491.627686 394.767365,488.258148 389.804840,484.854553 
	C387.685059,483.400726 385.954865,481.237488 383.053986,480.679474 
	C377.609131,495.955688 376.056580,511.328064 378.654755,527.037598 
	C384.199493,560.562744 399.889862,588.703125 423.930206,612.509460 
	C448.331757,636.673584 478.009888,651.069824 510.798767,659.416260 
	C547.965332,668.877197 585.908997,671.512817 624.144043,670.547058 
	C628.483337,670.437439 632.804626,669.612305 637.087219,669.124390 
	C636.919800,666.661438 635.353394,666.504089 634.281006,665.846375 
	C616.365784,654.859070 598.985840,643.123474 582.952148,629.475098 
	C568.683716,617.329285 556.566040,603.730713 550.350281,585.503418 
	C539.424072,553.462952 548.914978,519.607605 575.208740,498.226685 
	C584.158813,490.948883 593.855042,484.771729 603.759583,478.928955 
	C613.500916,473.182526 621.985168,465.980774 628.912903,457.116058 
	C644.079773,437.708740 647.893127,415.817688 642.130432,391.277496 
M642.480652,515.888672 
	C639.788025,504.150024 637.936768,492.197998 634.122192,480.830444 
	C631.754028,480.947754 630.669800,482.285370 629.461060,483.396454 
	C623.062988,489.277527 616.110657,494.440918 608.683411,498.916748 
	C599.542175,504.425476 590.654053,510.209656 582.718140,517.438904 
	C570.861389,528.239868 564.607788,541.552612 564.384644,557.523132 
	C564.109741,577.194397 572.332825,593.114441 586.282410,606.613770 
	C602.564819,622.370728 621.392822,634.616150 640.320862,646.758911 
	C646.235229,650.552917 652.204956,654.286377 659.320801,657.445862 
	C655.411499,609.782410 651.163818,563.009094 642.480652,515.888672 
M437.983826,346.323242 
	C467.910034,353.984558 489.910583,371.150604 502.141388,399.954956 
	C503.300018,402.683533 504.181091,404.935394 507.971649,404.838348 
	C511.730194,404.742065 512.035278,402.138458 513.031250,399.737488 
	C524.412354,372.301727 544.578674,354.983063 573.288696,347.582306 
	C583.090942,345.055481 593.195557,343.617065 602.378357,338.952728 
	C612.510437,333.806274 620.979675,323.102173 621.663635,314.193634 
	C620.176270,315.078491 618.765442,315.945831 617.328796,316.768005 
	C605.235718,323.688538 593.271484,325.719086 579.914429,319.030121 
	C546.353943,302.223633 510.733948,300.184113 474.250793,306.072174 
	C459.159912,308.507721 444.973816,313.687531 431.238403,320.188568 
	C421.100159,324.987061 411.343719,324.651093 401.752594,318.786011 
	C399.382446,317.336670 396.864441,316.129059 394.186401,314.687622 
	C395.527466,321.313477 399.834564,327.900238 404.943878,332.543243 
	C414.135895,340.896393 425.551086,343.699158 437.983826,346.323242 
M515.378784,451.759766 
	C516.697876,445.534790 517.509766,439.315979 515.699768,433.020721 
	C514.412048,428.541901 511.634064,425.641693 506.937897,425.463470 
	C501.897491,425.272186 499.771423,428.851318 498.393951,433.104370 
	C496.620972,438.578583 497.345276,443.960541 498.857147,449.308136 
	C500.599579,455.471161 502.672668,461.482422 507.542725,466.608551 
	C511.470276,462.109985 513.513977,457.441437 515.378784,451.759766 
z"/>
<path fill="#000000" opacity="1.000000" stroke="none" 
	d="
M574.946533,206.846664 
	C609.222351,216.782532 638.916870,233.500305 661.929565,260.700073 
	C678.484802,280.267456 690.915100,302.139252 696.497620,327.467773 
	C697.127625,330.326202 698.375183,332.385590 701.143372,334.036896 
	C722.046631,346.506104 733.134644,365.307800 736.335938,389.191528 
	C738.794250,407.531708 736.538635,425.159760 727.846375,441.510986 
	C718.218201,459.622681 703.431213,471.084747 682.630127,473.975037 
	C673.542725,475.237701 667.587280,471.362152 667.655334,463.926117 
	C667.701416,458.890808 670.727722,454.837585 675.703552,454.831604 
	C696.323547,454.806915 712.421082,436.819611 715.997498,418.572418 
	C720.264709,396.800201 717.391541,376.472626 701.972107,359.242737 
	C697.900513,354.693146 693.020142,351.275360 687.265015,349.207886 
	C682.642151,347.547180 680.008423,344.436859 678.811523,339.606781 
	C665.200928,284.680542 631.820740,247.765991 578.106018,229.508362 
	C552.282959,220.731110 525.670654,217.019806 498.490723,218.436829 
	C464.527924,220.207443 431.668213,226.635864 402.588257,245.587967 
	C368.110931,268.057648 346.247437,299.682831 336.173523,339.487610 
	C335.019318,344.048187 332.804993,347.186707 328.471710,349.154175 
	C308.987854,358.000610 300.698181,374.307098 298.209869,394.591919 
	C297.033203,404.184479 297.584808,413.629730 300.716827,422.654541 
	C307.284149,441.578186 319.659912,453.649597 340.738953,454.739502 
	C345.860046,455.004272 349.226807,458.845367 349.317627,463.998993 
	C349.403168,468.856232 345.896027,472.892395 340.760925,473.306396 
	C320.976044,474.901611 305.442291,466.817749 293.354095,451.680939 
	C284.096710,440.088806 280.360779,426.131866 278.952057,411.805908 
	C277.019379,392.151123 280.325226,373.277069 291.224426,356.314636 
	C296.875885,347.519226 303.928772,340.025269 313.074585,334.765381 
	C315.991150,333.088074 317.694183,330.964752 318.655182,327.634552 
	C333.098572,277.582123 363.085632,240.231934 410.275696,217.594574 
	C438.728455,203.945648 469.054230,198.016312 500.636932,197.518967 
	C525.780579,197.123016 550.452881,199.352692 574.946533,206.846664 
z"/>
<path fill="#000000" opacity="1.000000" stroke="none" 
	d="
M419.173218,391.030823 
	C429.176453,384.738495 439.185577,384.838867 448.762054,390.506989 
	C457.799744,395.856201 461.734772,404.411652 461.344330,414.936920 
	C460.875763,427.568695 449.617676,439.534058 437.372864,440.346832 
	C422.603241,441.327209 411.403625,432.889923 408.677032,419.074493 
	C406.418823,407.632202 409.984894,398.510590 419.173218,391.030823 
z"/>
<path fill="#000000" opacity="1.000000" stroke="none" 
	d="
M604.148926,403.219177 
	C610.128845,421.733978 599.707092,438.578766 581.055908,440.711090 
	C573.161987,441.613556 566.139221,438.796173 560.739197,433.131073 
	C553.439331,425.472748 551.186279,416.087036 554.002380,405.901764 
	C556.683105,396.206055 563.074829,389.840393 572.959900,387.287292 
	C585.768860,383.979034 597.821716,390.033417 604.148926,403.219177 
z"/>
</svg>