<svg version="1.1" id="Layer_1" xmlns="http://www.w3.org/2000/svg" xmlns:xlink="http://www.w3.org/1999/xlink" x="0px" y="0px"
	 width="100%" viewBox="0 0 1024 1024" enable-background="new 0 0 1024 1024" xml:space="preserve">
<path fill="#000000" opacity="1.000000" stroke="none" 
	d="
M524.376831,203.563354 
	C546.347473,204.043777 566.689819,209.388809 585.713867,219.181534 
	C593.301147,223.087158 599.272583,221.821686 605.498474,217.017395 
	C609.444702,213.972260 613.629333,211.224640 617.802429,208.489166 
	C620.325745,206.835175 623.115784,205.781387 626.221436,205.661545 
	C633.990417,205.361740 638.079407,209.074173 638.273560,216.895355 
	C638.581726,229.300690 634.440674,240.428345 628.123413,250.847061 
	C626.637085,253.298538 625.991150,254.952835 628.857056,257.047546 
	C643.392517,267.671448 650.787048,282.751099 654.059143,299.901550 
	C657.087036,315.772003 656.844482,331.637329 651.468933,347.182007 
	C649.383423,353.212708 646.544373,358.835938 643.304016,364.262573 
	C641.907288,366.601624 641.617493,368.648254 642.386841,371.274902 
	C650.398132,398.626099 654.621155,426.702209 658.437866,454.873932 
	C661.316223,476.120605 663.112671,497.469238 665.139709,518.796814 
	C666.083069,528.722534 666.587952,538.692383 667.164246,548.649658 
	C667.564758,555.570374 664.434021,559.749817 657.621765,561.182129 
	C632.017517,566.565613 606.144836,567.515991 580.122864,565.543884 
	C575.814209,565.217346 571.496704,565.359863 567.180725,564.662903 
	C562.923523,563.975342 563.902527,568.328247 561.986755,570.538391 
	C565.237366,571.970581 568.293030,570.943848 571.155396,571.577209 
	C576.128784,572.677856 578.434082,575.258118 578.356995,580.173889 
	C578.286438,584.675598 575.429504,588.121094 570.567505,588.194580 
	C554.409668,588.438904 538.244751,588.442871 522.085999,588.249573 
	C518.102783,588.201965 515.229065,585.903870 514.697998,581.505127 
	C514.145935,576.932617 515.678772,573.601440 520.296875,572.253296 
	C525.906982,570.615479 531.640442,569.401489 537.504395,569.732666 
	C542.122375,569.993530 544.851379,568.353760 545.489075,563.412720 
	C542.617676,561.115051 538.958679,561.687439 535.649109,560.973816 
	C526.551147,559.011841 517.405212,557.240784 508.382629,554.978088 
	C505.128662,554.162170 503.617218,554.749329 502.218567,557.786255 
	C498.597046,565.649658 494.600677,573.330872 490.141663,580.773499 
	C486.942810,586.112854 482.772644,588.763550 476.250000,588.509583 
	C465.602417,588.094971 454.926544,588.445129 444.263153,588.382446 
	C437.991211,588.345581 434.720398,585.692383 434.544220,580.750244 
	C434.362732,575.659363 437.815887,572.151550 443.761597,571.688538 
	C453.375183,570.939880 462.995728,570.260498 472.622650,569.716980 
	C475.024323,569.581421 476.809235,568.914551 477.916626,566.732544 
	C480.403442,561.832581 482.907745,556.941528 485.394806,552.041626 
	C486.991821,548.895325 485.848541,547.335327 482.618530,546.168701 
	C461.873962,538.676147 442.913086,527.916870 426.637299,513.043579 
	C398.318939,487.165527 380.644684,455.764435 377.458710,416.775177 
	C376.144653,400.694214 378.019104,385.274841 382.955688,370.114014 
	C383.879059,367.278259 382.977966,365.432098 381.663910,363.213318 
	C363.159485,331.969360 364.662079,300.914276 382.882263,270.176971 
	C384.717468,267.080994 387.428955,264.446686 389.996490,261.858795 
	C392.559814,259.275208 395.453400,257.019318 398.566132,254.302032 
	C394.593506,247.838501 390.998016,241.124664 388.903778,233.765747 
	C387.350464,228.307571 386.492615,222.757431 386.615936,217.023911 
	C386.819519,207.556534 392.394409,203.495651 401.466339,206.415741 
	C406.978973,208.190186 411.399567,211.749222 415.984772,215.067795 
	C418.406158,216.820312 420.881226,218.512802 423.430817,220.070831 
	C427.312134,222.442719 431.305695,222.309097 435.336792,220.320145 
	C455.901031,210.173645 477.585175,204.570969 500.548065,203.493759 
	C508.367249,203.126968 516.121643,202.285080 524.376831,203.563354 
M396.551666,282.046661 
	C393.501709,286.688416 391.453064,291.777649 389.984650,297.099060 
	C382.583710,323.919861 387.444000,347.475342 408.656586,366.605896 
	C413.781738,371.227997 419.823761,374.379700 425.996368,377.376587 
	C430.538788,379.582031 432.258392,385.718842 430.021301,390.262482 
	C428.349518,393.657990 423.645477,395.050232 419.079834,393.373474 
	C417.212372,392.687683 415.375610,391.852203 413.644806,390.872864 
	C408.468994,387.944366 403.352417,384.911072 397.904694,381.739319 
	C395.559052,387.594391 394.768341,393.515137 394.408020,399.410767 
	C393.192413,419.301361 397.584137,438.160187 406.175568,455.977661 
	C422.885956,490.632782 450.196411,513.842224 485.259216,528.700500 
	C518.282593,542.694458 553.076233,547.103333 588.478394,549.123230 
	C602.578125,549.927673 616.493042,548.747253 631.654541,548.398315 
	C628.820190,546.885132 627.063965,545.991211 625.348450,545.025024 
	C604.813843,533.459656 585.034424,520.759277 568.768188,503.491547 
	C550.100891,483.675018 543.245667,460.235840 549.689636,433.514771 
	C554.463379,413.719421 568.065186,400.751007 584.650452,390.464325 
	C592.289673,385.726196 600.303650,381.608704 607.693481,376.436218 
	C634.617493,357.590881 645.250000,322.792603 633.168701,292.186890 
	C629.493286,282.875763 623.928955,274.861084 615.284607,269.332367 
	C613.674805,268.302765 612.333435,267.604523 610.296082,268.728851 
	C601.742249,273.449432 592.274658,275.320862 582.864685,277.552338 
	C560.657471,282.818665 543.082520,294.219025 534.045227,316.248108 
	C532.110229,320.964752 530.734741,325.473358 534.553162,330.165009 
	C536.037903,331.989288 536.724182,334.705750 537.134399,337.124298 
	C540.776733,358.597015 534.016846,376.506226 517.979065,390.932220 
	C512.832336,395.561737 510.075073,395.204132 504.965698,390.462952 
	C497.754608,383.771393 492.251953,375.794067 488.967377,366.592194 
	C484.365021,353.698486 482.919189,340.512146 490.085388,328.024445 
	C492.493713,323.827759 492.374725,320.420990 490.629486,316.373047 
	C481.199890,294.501892 463.958832,282.488129 441.327850,277.473083 
	C432.202942,275.451019 423.073456,273.623322 414.922668,268.766174 
	C413.052582,267.651733 411.540466,268.129761 409.828857,269.133087 
	C404.551208,272.226685 400.215729,276.262695 396.551666,282.046661 
M557.452454,228.179413 
	C548.885498,225.312012 540.056458,223.844650 531.082947,222.957443 
	C500.804413,219.963852 471.481262,223.218842 444.139374,237.293076 
	C433.966614,242.529495 424.769958,241.803482 415.244232,236.538239 
	C413.515747,235.582840 411.887970,234.005646 409.546051,234.261993 
	C409.594208,234.982117 409.545319,235.334976 409.652679,235.631241 
	C409.878937,236.255676 410.175262,236.856094 410.463257,237.456589 
	C416.812744,250.696640 428.187195,256.923737 441.909119,259.505157 
	C472.864471,265.328644 495.838104,281.294281 508.269287,310.949402 
	C509.036926,312.780640 509.749420,314.593719 512.380554,314.635223 
	C515.278076,314.680939 515.891113,312.696838 516.744629,310.662659 
	C528.735779,282.084045 550.372131,265.568298 580.497803,259.560486 
	C586.687195,258.326172 592.890320,256.956268 598.596985,254.059082 
	C607.111694,249.736282 615.098328,239.761032 615.546814,232.822952 
	C612.408264,234.440002 609.376831,236.173630 606.207581,237.601273 
	C597.963562,241.314941 589.678833,242.493713 581.309387,237.783112 
	C574.020935,233.680939 566.179138,230.882187 557.452454,228.179413 
M598.085754,506.402924 
	C613.674866,518.652832 630.188293,529.383179 649.149048,537.844849 
	C645.548706,485.619781 640.811829,434.386230 627.869385,383.047180 
	C615.974304,394.698120 601.327637,400.038727 588.727600,408.616241 
	C562.012817,426.802521 556.603638,457.559357 575.133667,484.049835 
	C581.242310,492.782715 589.391663,499.343475 598.085754,506.402924 
M509.287567,332.647858 
	C505.835754,334.031799 504.382843,336.956543 503.435150,340.261475 
	C501.613708,346.613220 502.654877,352.812561 504.729156,358.855560 
	C506.253387,363.296082 507.767944,367.879089 512.451843,370.885803 
	C519.889343,361.046539 522.830200,350.769745 519.188354,339.192047 
	C517.848328,334.932037 515.152039,331.864777 509.287567,332.647858 
z"/>
<path fill="#000000" opacity="1.000000" stroke="none" 
	d="
M519.658203,124.107315 
	C534.575439,124.998474 548.975830,126.145737 563.115051,129.553406 
	C618.966125,143.014008 658.386597,175.807312 678.757568,229.762421 
	C682.840820,240.577515 687.294373,248.979538 697.368652,255.278732 
	C707.179382,261.413147 712.541809,271.945160 716.065308,282.931610 
	C722.119751,301.809265 722.608948,320.900116 716.442017,339.818420 
	C709.175049,362.111816 693.203918,374.374664 670.412842,378.283051 
	C668.608765,378.592438 666.807312,379.022461 664.989319,379.125671 
	C659.450562,379.440002 656.068176,376.667114 655.683350,371.659973 
	C655.171326,364.998505 657.412842,362.101257 663.786438,361.711884 
	C688.245667,360.217651 701.662048,342.014954 703.560669,319.420471 
	C704.213928,311.646271 703.938110,303.777069 702.224487,296.064728 
	C698.441162,279.037567 688.639282,266.989349 672.330017,260.632904 
	C668.454834,259.122559 666.657532,256.830292 665.620911,252.901474 
	C652.274231,202.316299 621.232056,168.227448 571.102661,152.103271 
	C549.966248,145.304718 528.169922,142.751572 506.109436,143.480026 
	C474.557373,144.521912 444.158020,150.723816 417.436920,168.620209 
	C387.582550,188.615097 368.180054,216.348709 359.361633,251.241898 
	C358.108398,256.200653 356.049774,259.374969 351.142273,261.398529 
	C332.796600,268.963104 323.381409,283.044647 321.085052,302.662109 
	C319.633698,315.060944 320.470306,326.952240 325.718781,338.256012 
	C332.389374,352.622650 343.888153,360.399933 359.693024,361.653992 
	C366.814789,362.219116 369.159973,365.096130 368.299255,372.589081 
	C367.741974,377.440399 363.813416,379.639801 357.798187,378.818512 
	C346.958557,377.338531 336.697968,374.645508 327.717651,367.838470 
	C312.059998,355.970001 305.449036,339.526459 303.854370,320.788208 
	C302.661560,306.771820 303.873352,292.882385 309.448181,279.635498 
	C314.956116,266.547516 323.736786,256.451782 336.271149,249.820312 
	C339.235443,248.252029 340.681519,246.187729 341.579254,243.134521 
	C358.514404,185.538269 395.377625,147.872406 453.464630,131.519119 
	C474.962952,125.466682 496.976013,123.859596 519.658203,124.107315 
z"/>
<path fill="#000000" opacity="1.000000" stroke="none" 
	d="
M361.157074,670.165405 
	C362.239105,682.840698 361.710907,694.852783 355.741180,706.041504 
	C343.518463,728.949951 324.644470,741.134155 298.480927,740.814880 
	C267.188507,740.433044 242.940231,720.301270 238.178314,689.598633 
	C232.006943,649.808350 262.526306,618.819580 297.168091,618.567444 
	C323.587952,618.375244 342.658752,630.046143 355.442596,652.763550 
	C358.424194,658.061951 359.630463,663.947998 361.157074,670.165405 
M282.823547,716.708252 
	C290.353424,720.479431 298.344360,721.994324 306.528778,720.028137 
	C331.378876,714.058472 344.371338,690.536438 336.535034,666.195618 
	C328.351196,640.775330 296.531708,631.074158 275.804962,647.680176 
	C253.202316,665.789185 256.489716,701.344727 282.823547,716.708252 
z"/>
<path fill="#000000" opacity="1.000000" stroke="none" 
	d="
M484.020874,714.866455 
	C481.721466,721.175720 479.605011,727.135925 477.393829,733.060730 
	C475.292847,738.690369 472.356659,740.315918 464.693909,740.280273 
	C457.386292,740.246277 454.609924,738.648926 452.591522,732.949219 
	C447.206085,717.741211 441.900146,702.505127 436.071533,685.879333 
	C434.159912,690.998901 432.660339,694.896973 431.245758,698.825684 
	C427.186066,710.100220 423.183746,721.395447 419.112244,732.665710 
	C417.068481,738.322998 414.045715,740.193176 407.122681,740.274048 
	C399.711029,740.360657 396.508148,738.719543 394.473419,732.902527 
	C386.011353,708.710815 377.631348,684.489807 369.382446,660.224670 
	C367.167877,653.710327 369.464691,650.931702 376.456329,650.855408 
	C378.288849,650.835388 380.122498,650.895630 381.954590,650.862915 
	C386.967621,650.773499 389.854279,653.058472 391.354584,657.985962 
	C395.714172,672.304443 400.389832,686.526855 404.974121,700.776428 
	C405.520172,702.473755 405.834930,704.313843 407.414551,705.855286 
	C409.437469,703.819214 409.816498,701.131531 410.635345,698.712341 
	C415.062988,685.631287 419.372070,672.510071 423.795715,659.427612 
	C426.034882,652.805542 429.170868,650.785217 436.615540,650.865479 
	C442.990387,650.934204 446.156982,653.319763 448.278595,659.678101 
	C452.753021,673.087524 457.206024,686.504089 461.705139,699.905212 
	C462.439545,702.092834 463.364746,704.216370 464.706940,707.668884 
	C467.252655,700.301086 469.442352,694.130127 471.516724,687.920654 
	C474.575043,678.765686 477.528351,669.575684 480.568970,660.414673 
	C483.424622,651.811035 492.622162,647.692627 500.929413,651.431213 
	C504.808105,653.176697 504.729858,656.382141 503.474976,659.901794 
	C498.668365,673.383240 493.922913,686.886475 489.154266,700.381470 
	C487.490906,705.088501 485.826416,709.795105 484.020874,714.866455 
z"/>
<path fill="#000000" opacity="1.000000" stroke="none" 
	d="
M623.709473,626.303589 
	C624.458252,619.704346 625.516663,618.721985 631.496460,618.657104 
	C633.327332,618.637207 635.158691,618.650269 636.989807,618.657959 
	C644.874634,618.691223 646.117310,619.916809 646.121399,628.020813 
	C646.138062,661.480591 646.129944,694.940369 646.104187,728.400146 
	C646.102539,730.557312 646.106018,732.758423 645.705688,734.862671 
	C644.766724,739.798340 641.011536,741.044983 630.474609,740.214844 
	C626.163818,739.875244 623.680908,737.807739 623.685669,733.275574 
	C623.686890,732.143677 623.685913,731.011780 623.685913,729.388367 
	C622.466797,730.280762 621.649536,730.780090 620.946838,731.407715 
	C598.556763,751.405823 561.191895,738.144897 554.820312,705.823486 
	C551.185486,687.384705 555.149902,670.972778 570.309570,658.673340 
	C586.149170,645.822144 606.526794,646.574951 621.747986,660.141724 
	C622.196960,660.541931 622.645325,660.942932 623.705261,661.889465 
	C623.705261,649.653503 623.705261,638.211670 623.709473,626.303589 
M579.581299,707.795044 
	C585.341309,718.262451 594.740356,723.236816 604.435486,720.948792 
	C618.427551,717.646606 625.733826,705.865967 623.637512,689.987183 
	C622.046021,677.932190 612.985657,668.853149 600.988770,668.568054 
	C590.972168,668.330078 581.536865,672.849121 578.048218,685.565491 
	C576.097290,692.676636 576.202515,700.070007 579.581299,707.795044 
z"/>
<path fill="#000000" opacity="1.000000" stroke="none" 
	d="
M731.864990,651.581665 
	C757.654053,644.278564 784.457214,658.645630 790.719604,682.839661 
	C797.437866,708.794922 782.582031,734.341736 756.667114,739.682861 
	C735.432495,744.059265 715.689026,736.569580 705.022034,717.420532 
	C695.013367,699.453369 698.540833,676.074646 713.040100,662.192749 
	C718.261963,657.193237 724.374084,653.512329 731.864990,651.581665 
M739.005249,720.630005 
	C752.058228,723.575806 762.973022,718.393188 767.776123,707.080627 
	C769.793335,702.329651 769.821777,697.388550 769.671570,692.382629 
	C769.178528,675.951843 753.839783,665.101013 738.189575,670.134949 
	C729.010376,673.087402 722.777161,681.496948 722.303589,691.567383 
	C721.555054,707.485413 725.807251,715.198120 739.005249,720.630005 
z"/>
<path fill="#000000" opacity="1.000000" stroke="none" 
	d="
M518.887329,619.347595 
	C523.539734,618.148254 527.881470,618.873962 532.191772,618.667664 
	C536.689392,618.452393 538.417847,620.749268 538.396973,625.089478 
	C538.320068,641.079712 538.371460,657.070496 538.372864,673.061096 
	C538.374573,692.549622 538.383911,712.038208 538.370117,731.526733 
	C538.365234,738.424255 536.678101,740.142334 529.958191,740.234985 
	C516.546692,740.419861 515.855408,739.758240 515.852966,726.313782 
	C515.847168,694.166443 515.846130,662.019043 515.893005,629.871765 
	C515.898254,626.262512 515.430481,622.449341 518.887329,619.347595 
z"/>
<path fill="#000000" opacity="1.000000" stroke="none" 
	d="
M663.777405,706.000000 
	C663.780334,690.505432 663.753601,675.510742 663.797302,660.516296 
	C663.819641,652.860168 665.645081,651.020874 673.120422,650.846619 
	C674.952271,650.803833 676.786926,650.768616 678.617737,650.820251 
	C684.358582,650.981873 686.330261,652.945923 686.339539,658.780579 
	C686.378296,683.271667 686.381042,707.762939 686.356018,732.254089 
	C686.350098,737.985168 684.296265,740.021118 678.603760,740.238647 
	C664.896729,740.762329 663.768066,739.674622 663.780579,725.993042 
	C663.786499,719.495361 663.778564,712.997681 663.777405,706.000000 
z"/>
<path fill="#000000" opacity="1.000000" stroke="none" 
	d="
M687.230347,633.405090 
	C684.156799,640.313293 678.540161,643.468872 672.470337,642.088318 
	C666.154968,640.651855 662.593689,636.057983 662.673035,629.450317 
	C662.759888,622.214844 667.603760,617.608398 675.175476,617.560791 
	C682.845337,617.512451 687.331421,621.888550 687.384338,629.491211 
	C687.392456,630.654663 687.321594,631.818604 687.230347,633.405090 
z"/>
<path fill="#000000" opacity="1.000000" stroke="none" 
	d="
M438.213867,345.272278 
	C424.805969,339.858765 418.797852,326.803345 423.156250,313.336609 
	C426.713135,302.346375 439.256683,295.427582 450.697418,298.145447 
	C464.545776,301.435242 472.509827,314.583466 468.934235,328.253296 
	C465.440247,341.611298 452.516083,348.904449 438.213867,345.272278 
z"/>
<path fill="#000000" opacity="1.000000" stroke="none" 
	d="
M572.159912,298.704346 
	C582.610352,296.275879 593.031311,300.515106 598.464417,309.163635 
	C604.127686,318.178497 603.040161,330.550018 595.854980,338.848053 
	C589.381348,346.324188 578.485901,348.785614 569.037598,344.906555 
	C560.274902,341.308929 554.512146,331.836945 554.657898,321.271210 
	C554.808105,310.385223 560.461914,302.945618 572.159912,298.704346 
z"/>
</svg>